<?xml version="1.0" encoding="utf-8"?>
<!-- Generator: Adobe Illustrator 23.0.0, SVG Export Plug-In . SVG Version: 6.00 Build 0)  -->
<svg version="1.1" id="Layer_1" xmlns="http://www.w3.org/2000/svg" xmlns:xlink="http://www.w3.org/1999/xlink" x="0px" y="0px"
	 viewBox="0 0 1910 1192" style="enable-background:new 0 0 1910 1192;" xml:space="preserve">
<style type="text/css">
	.st0{opacity:9.000000e-02;}
	.st1{fill:#038DFE;}
	.st2{font-family:'Lato-Bold';}
	.st3{font-size:35px;}
</style>
<g id="Group_34" class="st0">
	<text transform="matrix(6.123234e-17 1 -1 6.123234e-17 865 139.02)" class="st1 st2 st3">01110001110100011100101000</text>
	<g id="Group_33">
		<text transform="matrix(6.123234e-17 1 -1 6.123234e-17 1653 0.836)" class="st1 st2 st3">0111000111010001110010101001110010101110101</text>
		<text transform="matrix(6.123234e-17 1 -1 6.123234e-17 643 145.886)" class="st1 st2 st3">0111000111010001110010100001111001010111010111</text>
		<text transform="matrix(6.123234e-17 1 -1 6.123234e-17 1148 148.215)" class="st1 st2 st3">011100011101000111001010000111100101011101011101110</text>
		<text transform="matrix(6.123234e-17 1 -1 6.123234e-17 138 7.536)" class="st1 st2 st3">0111000111010001110010100001111001010111010111011101011</text>
		<text transform="matrix(6.123234e-17 1 -1 6.123234e-17 1425 94.664)" class="st1 st2 st3">01110001110100011100101000011110010101110101110</text>
		<text transform="matrix(6.123234e-17 1 -1 6.123234e-17 920 144.436)" class="st1 st2 st3">0111000111010001110010100001111001010111010111011</text>
		<text transform="matrix(6.123234e-17 1 -1 6.123234e-17 1708 411.425)" class="st1 st2 st3">011100011101000111001010000</text>
		<text transform="matrix(6.123234e-17 1 -1 6.123234e-17 698 176.419)" class="st1 st2 st3">011100011101000111001010000111100101011101011</text>
		<text transform="matrix(6.123234e-17 1 -1 6.123234e-17 1203 60.086)" class="st1 st2 st3">011100011101000111001010000111100101011101011101</text>
		<text transform="matrix(6.123234e-17 1 -1 6.123234e-17 1480 558.45)" class="st1 st2 st3">0111000111010001110010100001</text>
		<text transform="matrix(6.123234e-17 1 -1 6.123234e-17 470 60.436)" class="st1 st2 st3">0111000111010001110010100001111001010111010111011</text>
		<text transform="matrix(6.123234e-17 1 -1 6.123234e-17 975 138.436)" class="st1 st2 st3">0111000111010001110010100001111001010111010111011</text>
		<text transform="matrix(6.123234e-17 1 -1 6.123234e-17 1763 2.236)" class="st1 st2 st3">01110001110100011100101000011110010101110101110</text>
		<text transform="matrix(6.123234e-17 1 -1 6.123234e-17 753 59.136)" class="st1 st2 st3">011100011101000111001010000111100101011101011101110</text>
		<text transform="matrix(6.123234e-17 1 -1 6.123234e-17 1258 297.836)" class="st1 st2 st3">0111000111010001110010100001111001010111010</text>
		<text transform="matrix(6.123234e-17 1 -1 6.123234e-17 248 80.886)" class="st1 st2 st3">0111000111010001110010100001111001010111010111</text>
		<text transform="matrix(6.123234e-17 1 -1 6.123234e-17 1535 22.536)" class="st1 st2 st3">011100011101000111001010000111100101011101011</text>
		<text transform="matrix(6.123234e-17 1 -1 6.123234e-17 525 203.086)" class="st1 st2 st3">011100011101000111001010000111100101011101011101</text>
		<text transform="matrix(6.123234e-17 1 -1 6.123234e-17 1030 3.036)" class="st1 st2 st3">011100011101000111001010000111100101011101011</text>
		<text transform="matrix(6.123234e-17 1 -1 6.123234e-17 20 301.986)" class="st1 st2 st3">011100011101000111001010000111100101011101</text>
		<text transform="matrix(6.123234e-17 1 -1 6.123234e-17 1817 120.358)" class="st1 st2 st3">0111000111010001110010100001111001010111010111011</text>
		<text transform="matrix(6.123234e-17 1 -1 6.123234e-17 807 43.686)" class="st1 st2 st3">01110001110100011100101000011110010101110101</text>
		<text transform="matrix(6.123234e-17 1 -1 6.123234e-17 1312 89.086)" class="st1 st2 st3">011100011101000111001010000111100101011101011101</text>
		<text transform="matrix(6.123234e-17 1 -1 6.123234e-17 1590 196.886)" class="st1 st2 st3">0111000111010001110010100001111001010111010111</text>
		<text transform="matrix(6.123234e-17 1 -1 6.123234e-17 580 40.036)" class="st1 st2 st3">011100011101000111001010000111100101011101011</text>
		<text transform="matrix(6.123234e-17 1 -1 6.123234e-17 1085 477.651)" class="st1 st2 st3">011100011101000111001010000111</text>
		<text transform="matrix(6.123234e-17 1 -1 6.123234e-17 75 330.114)" class="st1 st2 st3">011100011101000111001010000111</text>
		<text transform="matrix(6.123234e-17 1 -1 6.123234e-17 1875 146.136)" class="st1 st2 st3">011100011101000111001010000111100101011101011101110</text>
		<text transform="matrix(6.123234e-17 1 -1 6.123234e-17 1370 22.886)" class="st1 st2 st3">0111000111010001110010100001111001010111010111</text>
		<text transform="matrix(6.123234e-17 1 -1 6.123234e-17 360 93.686)" class="st1 st2 st3">01110001110100011100101000011110010101110101</text>
		<text transform="matrix(6.123234e-17 1 -1 6.123234e-17 415 141.086)" class="st1 st2 st3">011100011101000111001010000111100101011101011101</text>
		<text transform="matrix(6.123234e-17 1 -1 6.123234e-17 193 569.45)" class="st1 st2 st3">0111000111010001110010100001</text>
		<text transform="matrix(6.123234e-17 1 -1 6.123234e-17 302 64.406)" class="st1 st2 st3">0111000111010001110010100001111001010111010111011101</text>
	</g>
</g>
</svg>
