<svg xmlns="http://www.w3.org/2000/svg" width="28.921" height="28.856" viewBox="0 0 28.921 28.856">
  <g id="placeholder-tool" transform="translate(-96 -8.708)">
    <g id="Groupe_473" data-name="Groupe 473">
      <g id="call-answer" transform="translate(96 8.676)">
        <g id="Groupe_472" data-name="Groupe 472">
          <g id="Groupe_471" data-name="Groupe 471">
            <path id="Tracé_2550" data-name="Tracé 2550" d="M28.272,22.856l-4.466-4.467a2.329,2.329,0,0,0-3.283.062l-2.25,2.25-.444-.247a22.392,22.392,0,0,1-5.412-3.915,22.517,22.517,0,0,1-3.922-5.422c-.083-.151-.163-.3-.242-.434l1.51-1.508.742-.743a2.327,2.327,0,0,0,.06-3.284L6.1.681A2.326,2.326,0,0,0,2.814.743L1.556,2.009l.034.034A7.279,7.279,0,0,0,.553,3.872,7.585,7.585,0,0,0,.091,5.728C-.5,10.617,1.736,15.086,7.8,21.149c8.381,8.381,15.136,7.748,15.427,7.717a7.547,7.547,0,0,0,1.861-.468,7.254,7.254,0,0,0,1.823-1.033l.028.024,1.275-1.249A2.331,2.331,0,0,0,28.272,22.856Z" fill="#fff"/>
          </g>
        </g>
      </g>
    </g>
  </g>
</svg>
